<svg xmlns="http://www.w3.org/2000/svg" viewBox="0 0 500 300" width="500" height="300">
  <defs>
    <linearGradient id="bg" x1="0%" y1="0%" x2="100%" y2="100%">
      <stop offset="0%" stop-color="#0d1117"/>
      <stop offset="100%" stop-color="#161b22"/>
    </linearGradient>
    <marker id="aBlue" markerWidth="8" markerHeight="6" refX="7" refY="3" orient="auto">
      <polygon points="0 0,8 3,0 6" fill="#58a6ff"/>
    </marker>
    <marker id="aOrange" markerWidth="8" markerHeight="6" refX="7" refY="3" orient="auto">
      <polygon points="0 0,8 3,0 6" fill="#f0883e"/>
    </marker>
  </defs>
  <rect width="500" height="300" rx="8" fill="url(#bg)"/>
  <text x="250" y="30" text-anchor="middle" font-family="SF Mono,Menlo,monospace" font-size="13" font-weight="bold" fill="#e6edf3">Goroutine Per Message</text>
  <!-- SQS Poller -->
  <rect x="30" y="80" width="130" height="48" rx="6" fill="#161b22" stroke="#3fb950" stroke-width="1.5"/>
  <text x="95" y="103" text-anchor="middle" font-family="SF Mono,monospace" font-size="10" fill="#3fb950">SQS Poller</text>
  <text x="95" y="118" text-anchor="middle" font-family="sans-serif" font-size="8" fill="#8b949e">spawn goroutine</text>
  <!-- Goroutines -->
  <rect x="210" y="55" width="110" height="28" rx="4" fill="#161b22" stroke="#d2a8ff" stroke-width="1"/>
  <text x="265" y="73" text-anchor="middle" font-family="SF Mono,monospace" font-size="9" fill="#d2a8ff">goroutine 1</text>
  <rect x="210" y="98" width="110" height="28" rx="4" fill="#161b22" stroke="#d2a8ff" stroke-width="1"/>
  <text x="265" y="116" text-anchor="middle" font-family="SF Mono,monospace" font-size="9" fill="#d2a8ff">goroutine 2</text>
  <rect x="210" y="141" width="110" height="28" rx="4" fill="#161b22" stroke="#d2a8ff" stroke-width="1"/>
  <text x="265" y="159" text-anchor="middle" font-family="SF Mono,monospace" font-size="9" fill="#d2a8ff">goroutine 3</text>
  <rect x="210" y="184" width="110" height="28" rx="4" fill="#161b22" stroke="#d2a8ff" stroke-width="1" opacity="0.4"/>
  <text x="265" y="202" text-anchor="middle" font-family="SF Mono,monospace" font-size="9" fill="#d2a8ff" opacity="0.5">goroutine ...N</text>
  <!-- CPU Thrashing -->
  <rect x="370" y="100" width="110" height="68" rx="6" fill="#1c2333" stroke="#f0883e" stroke-width="1.5"/>
  <text x="425" y="130" text-anchor="middle" font-family="SF Mono,monospace" font-size="12" font-weight="bold" fill="#f0883e">CPU</text>
  <text x="425" y="150" text-anchor="middle" font-family="SF Mono,monospace" font-size="11" font-weight="bold" fill="#f0883e">Thrashing</text>
  <!-- Arrows -->
  <line x1="160" y1="96" x2="205" y2="69" stroke="#58a6ff" stroke-width="1.5" marker-end="url(#aBlue)" opacity="0.7"/>
  <line x1="160" y1="104" x2="205" y2="112" stroke="#58a6ff" stroke-width="1.5" marker-end="url(#aBlue)" opacity="0.7"/>
  <line x1="160" y1="104" x2="205" y2="155" stroke="#58a6ff" stroke-width="1.5" marker-end="url(#aBlue)" opacity="0.7"/>
  <line x1="160" y1="104" x2="205" y2="198" stroke="#58a6ff" stroke-width="1.5" marker-end="url(#aBlue)" opacity="0.5"/>
  <line x1="320" y1="69" x2="365" y2="120" stroke="#f0883e" stroke-width="1.3" marker-end="url(#aOrange)" opacity="0.5"/>
  <line x1="320" y1="112" x2="365" y2="130" stroke="#f0883e" stroke-width="1.3" marker-end="url(#aOrange)" opacity="0.5"/>
  <line x1="320" y1="155" x2="365" y2="140" stroke="#f0883e" stroke-width="1.3" marker-end="url(#aOrange)" opacity="0.5"/>
  <line x1="320" y1="198" x2="365" y2="160" stroke="#f0883e" stroke-width="1.3" marker-end="url(#aOrange)" opacity="0.3"/>
</svg>
