<svg xmlns="http://www.w3.org/2000/svg" viewBox="0 0 500 300" width="500" height="300">
  <rect width="500" height="300" rx="8" fill="#0d1117"/>
  <text x="250" y="35" text-anchor="middle" font-family="SF Mono, monospace" font-size="13" font-weight="bold" fill="#e6edf3">Goroutine Per Message</text>
  <rect x="30" y="80" width="120" height="50" rx="6" fill="#161b22" stroke="#3fb950" stroke-width="1.5"/>
  <text x="90" y="103" text-anchor="middle" font-family="SF Mono, monospace" font-size="11" fill="#3fb950">SQS Poller</text>
  <text x="90" y="118" text-anchor="middle" font-family="sans-serif" font-size="9" fill="#8b949e">spawn goroutine</text>
  <rect x="200" y="60" width="110" height="30" rx="4" fill="#161b22" stroke="#d2a8ff" stroke-width="1" opacity="0.8"/>
  <text x="255" y="79" text-anchor="middle" font-family="SF Mono, monospace" font-size="9" fill="#d2a8ff">goroutine 1</text>
  <rect x="200" y="100" width="110" height="30" rx="4" fill="#161b22" stroke="#d2a8ff" stroke-width="1" opacity="0.8"/>
  <text x="255" y="119" text-anchor="middle" font-family="SF Mono, monospace" font-size="9" fill="#d2a8ff">goroutine 2</text>
  <rect x="200" y="140" width="110" height="30" rx="4" fill="#161b22" stroke="#d2a8ff" stroke-width="1" opacity="0.8"/>
  <text x="255" y="159" text-anchor="middle" font-family="SF Mono, monospace" font-size="9" fill="#d2a8ff">goroutine 3</text>
  <rect x="200" y="180" width="110" height="30" rx="4" fill="#161b22" stroke="#d2a8ff" stroke-width="1" opacity="0.5"/>
  <text x="255" y="199" text-anchor="middle" font-family="SF Mono, monospace" font-size="9" fill="#d2a8ff" opacity="0.5">goroutine N</text>
  <rect x="360" y="90" width="110" height="80" rx="6" fill="#161b22" stroke="#f0883e" stroke-width="1.5"/>
  <text x="415" y="125" text-anchor="middle" font-family="SF Mono, monospace" font-size="11" fill="#f0883e">CPU</text>
  <text x="415" y="143" text-anchor="middle" font-family="SF Mono, monospace" font-size="11" fill="#f0883e">Thrashing</text>
  <line x1="150" y1="90" x2="195" y2="75" stroke="#58a6ff" stroke-width="1.5" marker-end="url(#a)" opacity="0.7"/>
  <line x1="150" y1="105" x2="195" y2="105" stroke="#58a6ff" stroke-width="1.5" marker-end="url(#a)" opacity="0.7"/>
  <line x1="150" y1="105" x2="195" y2="145" stroke="#58a6ff" stroke-width="1.5" marker-end="url(#a)" opacity="0.7"/>
  <line x1="150" y1="105" x2="195" y2="195" stroke="#58a6ff" stroke-width="1.5" marker-end="url(#a)" opacity="0.5"/>
  <line x1="310" y1="75" x2="355" y2="110" stroke="#f0883e" stroke-width="1.5" marker-end="url(#a)" opacity="0.5"/>
  <line x1="310" y1="115" x2="355" y2="130" stroke="#f0883e" stroke-width="1.5" marker-end="url(#a)" opacity="0.5"/>
  <line x1="310" y1="155" x2="355" y2="150" stroke="#f0883e" stroke-width="1.5" marker-end="url(#a)" opacity="0.5"/>
  <line x1="310" y1="195" x2="355" y2="170" stroke="#f0883e" stroke-width="1.5" marker-end="url(#a)" opacity="0.3"/>
  <defs><marker id="a" markerWidth="8" markerHeight="6" refX="7" refY="3" orient="auto"><polygon points="0 0, 8 3, 0 6" fill="#58a6ff"/></marker></defs>
</svg>
