<svg xmlns="http://www.w3.org/2000/svg" viewBox="0 0 500 250" width="500" height="250">
  <rect width="500" height="250" rx="8" fill="#0d1117"/>
  <text x="250" y="35" text-anchor="middle" font-family="SF Mono, monospace" font-size="13" font-weight="bold" fill="#e6edf3">Redis Polling</text>
  <rect x="30" y="90" width="100" height="40" rx="6" fill="#161b22" stroke="#30363d" stroke-width="1.5"/>
  <text x="80" y="115" text-anchor="middle" font-family="SF Mono, monospace" font-size="11" fill="#e6edf3">Producer</text>
  <ellipse cx="220" cy="110" rx="55" ry="50" fill="none" stroke="#f0883e" stroke-width="2" stroke-dasharray="4 3"/>
  <text x="220" y="108" text-anchor="middle" font-family="SF Mono, monospace" font-size="14" font-weight="bold" fill="#f0883e">Redis</text>
  <text x="220" y="125" text-anchor="middle" font-family="sans-serif" font-size="9" fill="#8b949e">(blocking)</text>
  <rect x="340" y="60" width="130" height="35" rx="6" fill="#161b22" stroke="#30363d" stroke-width="1.5"/>
  <text x="405" y="82" text-anchor="middle" font-family="SF Mono, monospace" font-size="10" fill="#e6edf3">Worker 1</text>
  <rect x="340" y="110" width="130" height="35" rx="6" fill="#161b22" stroke="#30363d" stroke-width="1.5"/>
  <text x="405" y="132" text-anchor="middle" font-family="SF Mono, monospace" font-size="10" fill="#e6edf3">Worker 2</text>
  <rect x="340" y="160" width="130" height="35" rx="6" fill="#161b22" stroke="#30363d" stroke-width="1.5"/>
  <text x="405" y="182" text-anchor="middle" font-family="SF Mono, monospace" font-size="10" fill="#e6edf3">Worker 3</text>
  <line x1="130" y1="110" x2="160" y2="110" stroke="#58a6ff" stroke-width="2" marker-end="url(#a)"/>
  <text x="145" y="103" text-anchor="middle" font-family="sans-serif" font-size="9" fill="#58a6ff" opacity="0.7">LPUSH</text>
  <line x1="278" y1="78" x2="335" y2="78" stroke="#3fb950" stroke-width="1.5" marker-end="url(#a)" opacity="0.7"/>
  <line x1="278" y1="110" x2="335" y2="128" stroke="#3fb950" stroke-width="1.5" marker-end="url(#a)" opacity="0.7"/>
  <line x1="278" y1="110" x2="335" y2="178" stroke="#3fb950" stroke-width="1.5" marker-end="url(#a)" opacity="0.7"/>
  <text x="305" y="95" text-anchor="middle" font-family="sans-serif" font-size="9" fill="#3fb950" opacity="0.7">BRPOP (poll)</text>
  <defs><marker id="a" markerWidth="8" markerHeight="6" refX="7" refY="3" orient="auto"><polygon points="0 0, 8 3, 0 6" fill="#58a6ff"/></marker></defs>
</svg>
