<svg xmlns="http://www.w3.org/2000/svg" viewBox="0 0 680 320" width="680" height="320">
  <defs>
    <linearGradient id="bg" x1="0%" y1="0%" x2="100%" y2="100%">
      <stop offset="0%" stop-color="#0d1117"/>
      <stop offset="100%" stop-color="#161b22"/>
    </linearGradient>
    <marker id="aBlue" markerWidth="8" markerHeight="6" refX="7" refY="3" orient="auto">
      <polygon points="0 0,8 3,0 6" fill="#58a6ff"/>
    </marker>
    <marker id="aPurple" markerWidth="8" markerHeight="6" refX="7" refY="3" orient="auto">
      <polygon points="0 0,8 3,0 6" fill="#d2a8ff"/>
    </marker>
    <marker id="aOrange" markerWidth="8" markerHeight="6" refX="7" refY="3" orient="auto">
      <polygon points="0 0,8 3,0 6" fill="#f0883e"/>
    </marker>
  </defs>
  <rect width="680" height="320" rx="8" fill="url(#bg)"/>
  <text x="340" y="30" text-anchor="middle" font-family="SF Mono,Menlo,monospace" font-size="13" font-weight="bold" fill="#e6edf3">The Flow</text>
  <!-- SQS Poller -->
  <rect x="20" y="80" width="130" height="52" rx="8" fill="#161b22" stroke="#3fb950" stroke-width="1.5"/>
  <text x="85" y="103" text-anchor="middle" font-family="SF Mono,monospace" font-size="10" font-weight="bold" fill="#3fb950">SQS Poller</text>
  <text x="85" y="120" text-anchor="middle" font-family="sans-serif" font-size="8" fill="#8b949e">batch ReceiveMessage</text>
  <!-- Ack Batcher -->
  <rect x="20" y="200" width="130" height="52" rx="8" fill="#161b22" stroke="#f0883e" stroke-width="1.5"/>
  <text x="85" y="223" text-anchor="middle" font-family="SF Mono,monospace" font-size="10" font-weight="bold" fill="#f0883e">Ack Batcher</text>
  <text x="85" y="240" text-anchor="middle" font-family="sans-serif" font-size="8" fill="#8b949e">DeleteMessageBatch</text>
  <!-- Ring Buffer -->
  <rect x="210" y="110" width="140" height="60" rx="8" fill="#161b22" stroke="#58a6ff" stroke-width="1.5"/>
  <text x="280" y="137" text-anchor="middle" font-family="SF Mono,monospace" font-size="11" font-weight="bold" fill="#58a6ff">Ring Buffer</text>
  <text x="280" y="156" text-anchor="middle" font-family="sans-serif" font-size="8" fill="#8b949e">write / read slots</text>
  <!-- Dispatcher -->
  <rect x="420" y="110" width="140" height="60" rx="8" fill="#161b22" stroke="#d2a8ff" stroke-width="1.5"/>
  <text x="490" y="137" text-anchor="middle" font-family="SF Mono,monospace" font-size="11" font-weight="bold" fill="#d2a8ff">Dispatcher</text>
  <text x="490" y="156" text-anchor="middle" font-family="sans-serif" font-size="8" fill="#8b949e">batch dispatch</text>
  <!-- Worker Pool -->
  <rect x="420" y="200" width="140" height="60" rx="8" fill="#161b22" stroke="#d2a8ff" stroke-width="1.5"/>
  <text x="490" y="227" text-anchor="middle" font-family="SF Mono,monospace" font-size="11" font-weight="bold" fill="#d2a8ff">Worker Pool</text>
  <text x="490" y="246" text-anchor="middle" font-family="sans-serif" font-size="8" fill="#8b949e">bounded process</text>
  <!-- Results -->
  <rect x="270" y="200" width="120" height="60" rx="8" fill="#161b22" stroke="#f0883e" stroke-width="1.5"/>
  <text x="330" y="227" text-anchor="middle" font-family="SF Mono,monospace" font-size="10" font-weight="bold" fill="#f0883e">Results</text>
  <text x="330" y="246" text-anchor="middle" font-family="sans-serif" font-size="8" fill="#8b949e">Ack / Retry / DLQ</text>
  <!-- Arrows -->
  <line x1="150" y1="106" x2="205" y2="132" stroke="#58a6ff" stroke-width="2" marker-end="url(#aBlue)"/>
  <text x="178" y="102" text-anchor="middle" font-family="sans-serif" font-size="8" fill="#58a6ff" opacity="0.7">EnqueueBatch</text>
  <line x1="350" y1="140" x2="415" y2="140" stroke="#d2a8ff" stroke-width="2" marker-end="url(#aPurple)"/>
  <text x="383" y="134" text-anchor="middle" font-family="sans-serif" font-size="8" fill="#d2a8ff" opacity="0.7">ReadBatch</text>
  <line x1="490" y1="170" x2="490" y2="195" stroke="#d2a8ff" stroke-width="2" marker-end="url(#aPurple)"/>
  <text x="506" y="185" text-anchor="middle" font-family="sans-serif" font-size="8" fill="#d2a8ff" opacity="0.7">SubmitBatch</text>
  <line x1="420" y1="230" x2="395" y2="230" stroke="#f0883e" stroke-width="2" marker-end="url(#aOrange)"/>
  <text x="408" y="224" text-anchor="middle" font-family="sans-serif" font-size="8" fill="#f0883e" opacity="0.7">results</text>
  <!-- DeleteMessageBatch -->
  <path d="M 270 230 L 155 230 Q 150 230 150 225 L 150 150" stroke="#f0883e" stroke-width="2" stroke-dasharray="6 3" fill="none" marker-end="url(#aOrange)" opacity="0.7"/>
  <text x="210" y="225" text-anchor="middle" font-family="sans-serif" font-size="8" fill="#f0883e" opacity="0.7">DeleteMessageBatch</text>
</svg>
